<?xml version="1.0" encoding="UTF-8"?>
<svg id="Capa_1" data-name="Capa 1" xmlns="http://www.w3.org/2000/svg" viewBox="0 0 595.28 582">
  <defs>
    <style>
      .cls-1 {
        fill: #ffbf00;
      }
    </style>
  </defs>
  <g>
    <path class="cls-1" d="m239.82,273.46c-.16.46-.33.93-.46,1.39.17-.53.35-1.04.53-1.56-.04.06-.06.11-.07.17Zm.07-.22v.05c.2-.51.4-1.03.62-1.54-.22.49-.42.99-.62,1.48Zm.62-1.54v.06c.17-.37.33-.73.48-1.1-.18.35-.33.7-.48,1.04Zm1.94-3.96c-.09.15-.18.29-.26.46-.11.16-.2.35-.27.53-.06.11-.11.2-.15.31.15-.31.31-.62.49-.93.11-.22.24-.44.37-.66-.07.09-.13.2-.18.29Zm2.36-3.78c-.11.15-.2.29-.31.44v.04c-.16.22-.33.46-.48.7l-.44.71c-.04.06-.07.09-.11.15-.05.09-.13.18-.16.27-.02.04-.02.06-.04.07s-.02.04-.02.05c.31-.53.64-1.04.99-1.56.24-.37.48-.71.73-1.06.13-.18.24-.35.35-.51-.16.24-.35.46-.51.7Zm.57-.79s-.04.06-.06.09c.06-.07.11-.13.15-.18l-.09.09Zm.99-1.3c-.24.29-.46.59-.68.88-.09.11-.17.22-.22.33.33-.46.68-.9,1.03-1.34-.06.04-.09.09-.13.13Zm2.02-2.35c-.29.31-.57.62-.84.93-.11.13-.22.27-.31.4.46-.53.92-1.06,1.37-1.56-.07.07-.15.15-.22.22Zm11.14-8.94c-.15.07-.27.15-.42.24-.29.17-.6.35-.9.55-.24.15-.48.29-.7.44-.4.24-.79.49-1.17.77-.7.48-1.37.97-2.03,1.48-.35.26-.68.51-.99.79-.33.26-.66.53-.97.81-.53.46-1.04.93-1.56,1.41-.51.48-1.01.97-1.5,1.48-.13.11-.24.24-.35.37-.09.09-.18.2-.24.29.29-.31.6-.62.92-.93.27-.29.57-.59.86-.86.06-.06.11-.11.17-.15.24-.22.46-.44.7-.66.59-.53,1.17-1.06,1.78-1.54.31-.27.62-.53.95-.77.24-.18.48-.37.71-.53.16-.15.33-.26.49-.38.31-.24.62-.46.95-.68.06-.06.11-.09.17-.11,1.12-.77,2.25-1.48,3.45-2.14,0,0,.02,0,.02-.02s.02-.02.02-.04c-.11.05-.24.11-.35.18Zm99.03,95.24v1.06l.05-.22.04-.13.35-.09.15-.04-.59-.59Zm37.39,50.55h-10.72l-.02.05h10.74c.62,0,1.15-.46,1.25-1.08-.13.59-.64,1.03-1.25,1.03Zm143.26,113.97l-79.82-80.15c-5.1-5.11-13.2-5.41-18.6-.81l-2.36-2.36-.04-.04c-2.2,2.91-4.73,5.59-7.52,8.03-5,4.31-10.65,7.61-16.79,9.75-1.83.66-3.72,1.23-5.63,1.67l.04.06,7.53,7.55c-4.6,5.37-4.36,13.49.73,18.6l79.82,80.15c5.37,5.39,14.13,5.39,19.5.05l23.11-23.02c5.37-5.35,5.37-14.1.02-19.48ZM200.63,214.77c-1.19,1.32-2.29,2.71-3.34,4.16,1.1-1.45,2.25-2.79,3.45-4.05l-.11-.11Zm3.98,16.81c1.54-3.04,3.43-5.81,5.61-8.28-2.2,2.47-4.09,5.24-5.61,8.28Zm12.85-29.31l.02.07s.02-.07.04-.09c-.02,0-.04,0-.05.02Zm3.01,12.85c-.09.04-.16.09-.24.15.15-.07.31-.17.46-.24t.02-.04c-.09.04-.16.09-.24.13Zm-1.23.71s-.02,0-.02.02h-.02l.02.02s.06-.04.07-.05c-.02.02-.04.02-.06.02Zm-.31.18v.02s.09-.06.13-.07l.02-.02c-.05,0-.09.04-.15.07Z"/>
    <path class="cls-1" d="m223.71,151.99L118.09,26.82C32.31,58.93,15.61,128.47,15.61,128.47l124.02,105.03c23.24,5.35,43.13-.71,52.22-5.08,1.37-3.5,3.28-6.67,5.44-9.49,1.04-1.45,2.14-2.84,3.34-4.16l.11.11c1.8-1.91,3.67-3.59,5.48-5.08.81-.68,1.59-1.3,2.38-1.89.51-.37,1.01-.73,1.5-1.08,4.2-2.97,7.37-4.49,7.37-4.49l-.02-.07s.04-.02.05-.02c7.88-19.8,6.2-50.26,6.2-50.26Zm-72.38,58.87c-3.12,3.08-8.17,3.1-11.25-.02l-82.12-82.45c-3.12-3.13-3.08-8.19.02-11.29,1.56-1.56,3.61-2.33,5.65-2.35,2.07.04,4.11.82,5.65,2.36l82.12,82.46c3.1,3.1,3.1,8.12-.05,11.27Zm23.2-23.11c-3.13,3.1-8.17,3.13-11.27.02l-82.13-82.46c-3.12-3.13-3.08-8.17.04-11.29,1.56-1.54,3.61-2.33,5.63-2.33,2.05.04,4.12.79,5.66,2.35l82.13,82.46c3.08,3.1,3.06,8.14-.06,11.25Zm25.18-25.11c-3.13,3.13-8.17,3.13-11.25.02l-82.12-82.45c-3.12-3.15-3.12-8.17.04-11.29,1.54-1.54,3.59-2.33,5.63-2.33,2.05.04,4.07.82,5.61,2.36l82.13,82.46c3.1,3.1,3.08,8.14-.04,11.22Z"/>
  </g>
  <g>
    <path class="cls-1" d="m223.45,450.43c4.89,5,5.17,13.01.46,18.38l-73.52,84.02c-4.93,5.65-13.56,6.2-19.17,1.28l-24.23-21.21c-5.65-4.93-6.21-13.55-1.28-19.17l73.52-84.04c4.71-5.37,12.67-6.16,18.27-1.98l2.31-2.64.02-.02.04.04c.62.92,11.4,15.91,32.46,15.2l-8.87,10.14Z"/>
    <path class="cls-1" d="m579.55,56.11l-64.35,124.05c-11.79,22.71-33.95,39.87-56.11,43.39-6.53,1.06-12.63.86-18.15-.4-9.13-16.88-25.9-22.73-25.9-22.73-2-5.26-2.99-11.25-2.8-17.85.4-16.28,7.92-33.58,20.02-47.42,4.6-5.28,9.84-9.9,15.54-13.99l114.41-80.23-106.73,121.95c-4.16,4.77-3.7,12.06,1.12,16.28,4.77,4.16,12.08,3.68,16.24-1.08l106.71-121.96Z"/>
  </g>
  <g>
    <path class="cls-1" d="m376.9,251.06c-5.17-3.17-11.05-5.32-17.32-6.14v-.06c6.29.84,12.15,2.99,17.32,6.2Z"/>
    <path class="cls-1" d="m388.63,261.45c-.95-1.17-1.94-2.31-2.99-3.39,1.06,1.06,2.05,2.22,2.99,3.39Z"/>
    <path class="cls-1" d="m393.21,268.57c-.7-1.34-1.45-2.6-2.25-3.85.84,1.25,1.58,2.53,2.25,3.85Z"/>
    <path class="cls-1" d="m433.17,405.07c-2.27,6.75-6.34,12.68-11.62,17.25-3.74,3.24-8.06,5.79-12.83,7.46,0,0-.02.02-.04.02-3.96,1.39-8.17,2.18-12.59,2.22-.18.02-.35.02-.53.02h-22.56v-.06h22.56c.16,0,.31,0,.48-.02,4.49-.04,8.8-.84,12.81-2.29,4.69-1.65,8.96-4.18,12.65-7.37,5.28-4.56,9.37-10.48,11.68-17.23Z"/>
    <path class="cls-1" d="m312.23,200.4v.07h32.28v-.07h-32.28Zm109.26,221.9c-3.68,3.19-7.95,5.72-12.65,7.37-4.01,1.45-8.32,2.25-12.81,2.29-.16.02-.31.02-.48.02h-22.56v.06h22.56c.18,0,.35,0,.53-.02,4.42-.04,8.63-.82,12.59-2.22.02,0,.04-.02.04-.02,4.77-1.67,9.09-4.22,12.83-7.46,5.28-4.56,9.35-10.5,11.62-17.25-2.31,6.75-6.4,12.67-11.68,17.23Zm-30.54-157.58c.81,1.25,1.56,2.51,2.25,3.85-.68-1.32-1.41-2.6-2.25-3.85Zm-5.32-6.65c1.04,1.08,2.03,2.22,2.99,3.39-.93-1.17-1.92-2.33-2.99-3.39Zm11.33,138.31h-23.97v.05h23.97c.62,0,1.15-.46,1.25-1.08-.13.59-.64,1.03-1.25,1.03Zm-37.39-151.51v.06c6.27.82,12.15,2.97,17.32,6.14-5.17-3.21-11.03-5.35-17.32-6.2Zm0,101.32v.51l.05-.04.38-.22-.44-.26Zm31.38-81.47c.81,1.25,1.56,2.51,2.25,3.85-.68-1.32-1.41-2.6-2.25-3.85Zm-5.32-6.65c1.04,1.08,2.03,2.22,2.99,3.39-.93-1.17-1.92-2.33-2.99-3.39Zm-26.06-13.2v.06c6.27.82,12.15,2.97,17.32,6.14-5.17-3.21-11.03-5.35-17.32-6.2Z"/>
    <path class="cls-1" d="m435.28,249.21v143.08c0,2.73-.27,5.41-.81,7.99-.33,1.61-.77,3.23-1.3,4.75v.04c-2.31,6.75-6.4,12.67-11.68,17.23-3.68,3.19-7.95,5.72-12.65,7.37-4.01,1.45-8.32,2.25-12.81,2.29-.16.02-.31.02-.48.02h-22.56v-35.54h23.97c.62,0,1.15-.46,1.25-1.08.02-.07.02-.17.02-.26v-106.04c0-1.47-.07-2.91-.22-4.34v-.02c-.13-1.3-.29-2.58-.55-3.85-.66-3.52-1.72-6.89-3.17-10.08-.24-.53-.49-1.04-.75-1.56-.11-.2-.2-.4-.33-.6v-.04c-.68-1.32-1.41-2.6-2.25-3.85-.02-.04-.04-.07-.07-.11-.27-.46-.57-.9-.9-1.34-.42-.6-.86-1.17-1.32-1.76,0-.02-.02-.04-.04-.06-.93-1.17-1.92-2.33-2.99-3.39l-.07-.07c-.51-.55-1.01-1.04-1.54-1.5-.82-.77-1.69-1.52-2.57-2.22-.31-.26-.64-.51-.97-.77-.46-.35-.93-.68-1.41-1.01-.7-.49-1.41-.95-2.14-1.41-.02,0-.02-.02-.04-.02-5.17-3.21-11.03-5.35-17.32-6.2v187.11h-35.93v-12.83l-.02-14.37c0-12.45,0-24.87-.02-37.32v-157.89h71.96c1.12,0,2.24.06,3.34.13,2.09.18,4.14.53,6.12,1.01,1.08.26,2.13.57,3.17.93,2.88.95,5.61,2.25,8.14,3.83,5.06,3.1,9.37,7.31,12.57,12.3,1.63,2.47,2.97,5.17,4,8.01.2.55.38,1.12.57,1.69.4,1.25.73,2.51.99,3.81.53,2.57.81,5.22.81,7.94Z"/>
  </g>
  <path class="cls-1" d="m310.78,210.11c-3.79,0-7.59,0-11.38-.02-19.28,0-38.57-.04-57.83.04-7.33.04-14.1,1.76-19.89,4.89-.15.07-.31.16-.46.24-.04.02-.05.04-.07.04l-.04.04s-.02.02-.04.02c-.02.02-.04.02-.04.02h-.02s-.04.04-.05.04c0,.02-.02.02-.02.02,0,.02-.02.02-.02.02-.07.04-.13.07-.2.11-.11.07-.22.13-.33.18-.04.04-.07.05-.11.07-.02.02-.06.04-.07.05l-.02-.02s0,.02-.02.04h-.02l-.02.02h-.02s-.02.02-.04.04h-.02l-.02.02s-.09.04-.13.07l-.02.02h-.02s-.09.04-.13.07t-.04.04c-.35.2-.68.42-1.01.64-.02.02-.02.04-.04.04s-.02.02-.04.02t-.04.02c-.13.11-.26.18-.38.29-.77.51-1.52,1.1-2.25,1.7-.35.27-.7.57-1.04.9-.15.13-.29.26-.44.38-.48.42-.93.88-1.37,1.32-.49.49-.95.99-1.41,1.5t0,.02c-2.18,2.47-4.07,5.24-5.61,8.28l-.02.02c-.07.15-.15.29-.2.44-.95,1.92-1.76,3.96-2.38,6.09-.33,1.01-.6,2.05-.84,3.12-.02.07-.04.15-.06.22-.02.05-.02.11-.04.16-.11.55-.24,1.1-.33,1.67-.07.37-.13.75-.16,1.12-.02.11-.04.22-.04.33-.24,1.83-.29,3.7-.29,5.55v4.47c-.02,13.45-.02,26.89-.02,40.34,0,15.14-.02,30.28-.02,45.42v9.66c0,13.82.02,27.66.02,41.48,0,1.96.13,3.87.35,5.74.04.22.07.44.11.64.04.38.09.77.16,1.14.4,2.42,1.01,4.75,1.8,6.98.2.55.4,1.1.62,1.63.2.49.42,1.01.64,1.5l.66,1.37c.22.42.44.84.66,1.25.46.82.93,1.63,1.45,2.42,1.7,2.58,3.7,4.95,5.98,7.06,2.22,2.02,4.67,3.79,7.37,5.3,2.71,1.52,5.68,2.77,8.83,3.68,0,0,2.31.7,5.33,1.21,1.36.22,2.86.42,4.36.49h23v-35.21h-5.39c-5.65,0-11.29-.07-16.94.04-.27,0-.53-.02-.77-.04-.18-.02-.37-.06-.51-.09-.06-.02-.09-.04-.15-.06-.11-.04-.22-.07-.33-.13-.07-.04-.13-.05-.18-.11-.09-.04-.16-.11-.24-.18-.07-.06-.13-.11-.16-.18-.02-.04-.04-.06-.06-.07-.05-.07-.09-.15-.15-.24-.06-.11-.11-.22-.15-.35-.04-.11-.07-.2-.09-.33-.02-.04-.02-.05-.02-.09-.02-.09-.04-.18-.06-.29-.02-.2-.04-.42-.04-.66v-.04c0-5.52.02-11.05.02-16.57v-.04c0-8.05,0-16.11-.02-24.16,0-.46.04-.86.13-1.19.02-.07.04-.15.06-.2.02-.06.04-.11.07-.15,0-.04.02-.07.04-.11.04-.07.07-.15.13-.2.11-.18.27-.33.48-.48,0,0,.02,0,.04-.02.07-.04.17-.09.26-.13.06-.05.11-.09.18-.15,0,0,.02,0,.04-.02.13-.07.27-.15.46-.18.17-.07.35-.11.55-.13.18-.02.4-.04.62-.04h.09c7.5.04,15.01.07,22.49.04h.48c3.45,0,6.89-.02,10.36-.05.24,0,.48,0,.68.04.13,0,.27.02.38.06.06,0,.11.02.17.04.13.04.26.07.37.13.13.06.24.11.33.18.11.07.2.15.27.24.07.07.13.15.17.24.02.02.04.02.04.04v.02s.04.04.04.06l.02.02s.02,0,0,.02l.02.02c.04.06.05.11.07.18.06.11.09.24.11.37.02.04.02.07.02.11.04.06.04.09.04.15v.02c.04.18.05.38.05.6.02.27.02.57.02.88v1.14c-.02,11.38-.02,22.73-.02,34.09v21.67c0,7.19.04,14.35.06,21.52h35.14v-221.68h-1.45Zm-33.74,100.76c0,.29,0,.55-.02.81.02.26.02.48,0,.7v.29c-.02.09-.02.2-.04.27v.09c-.02.13-.04.26-.06.37,0,.06-.02.11-.04.17,0,.04-.02.09-.05.13v.02s-.04.07-.04.09c-.02.09-.07.18-.15.26,0,.04-.02.06-.06.07-.04.05-.07.09-.11.11-.02.02-.04.04-.07.05-.07.06-.15.09-.24.13-.02.02-.06.04-.09.04-.02.04-.06.05-.07.07s-.04.04-.07.06c-.07.05-.15.09-.24.13-.09.05-.22.09-.35.11-.11.04-.26.05-.4.07h-.02c-.22.02-.46.04-.73.04-.4.02-.88.02-1.43.02h-31.34c-.46,0-.86,0-1.21-.02-.18,0-.33,0-.48-.02-.4-.04-.71-.07-.97-.18-.09-.04-.16-.07-.24-.11-.11-.05-.2-.13-.27-.22-.04-.02-.06-.04-.07-.07-.05-.09-.13-.2-.15-.31-.04-.09-.07-.18-.09-.29-.02-.09-.04-.2-.05-.31,0,0-.02,0-.02-.02-.02-.07-.02-.17-.04-.27v-.42c-.02-.4-.02-.9,0-1.48.24-9.95-.27-20,1.03-29.8,0-.04.02-.09.02-.13.04-.35.09-.68.17-1.03.02-.18.05-.37.09-.57.04-.27.09-.55.17-.84.04-.24.09-.48.15-.73,0-.02,0-.04.02-.05v-.06c.06-.24.11-.48.18-.71.02-.07.04-.15.05-.22,0-.04.02-.05.02-.09.02-.04.02-.09.04-.13.04-.15.07-.27.11-.4v-.04c.09-.33.2-.64.29-.97h.02c.04-.2.11-.38.18-.59.13-.46.29-.93.46-1.39.02-.06.04-.11.07-.17v-.05c.2-.49.4-.99.62-1.48v-.06c.15-.35.29-.7.48-1.04.07-.15.13-.27.18-.4.09-.18.16-.35.26-.53.04-.11.09-.2.15-.31.02-.05.06-.13.09-.18.02-.04.04-.09.07-.13,0-.02.02-.04.04-.06.04-.11.09-.2.15-.31.07-.18.17-.37.27-.53.07-.17.16-.31.26-.46.06-.09.11-.2.18-.29.02-.05.05-.09.09-.15.11-.26.26-.49.44-.75.02-.06.04-.09.09-.15,0-.02,0-.04.02-.05s.02-.04.04-.07c.04-.09.11-.18.16-.27.04-.06.07-.09.11-.15l.44-.71c.15-.24.31-.48.48-.7v-.04c.11-.15.2-.29.31-.44.16-.24.35-.46.51-.7.02-.04.04-.07.06-.09l.09-.09c.05-.11.13-.22.22-.33.22-.29.44-.59.68-.88.04-.04.07-.09.13-.13v-.04c.24-.29.48-.57.73-.84.09-.13.2-.27.31-.4.27-.31.55-.62.84-.93.07-.07.15-.15.22-.22.02-.04.05-.05.09-.09.05-.09.15-.2.24-.29.11-.13.22-.26.35-.37.49-.51.99-1.01,1.5-1.48.51-.48,1.03-.95,1.56-1.41.31-.27.64-.55.97-.81.31-.27.64-.53.99-.79.66-.51,1.34-1.01,2.03-1.48.38-.27.77-.53,1.17-.77.22-.15.46-.29.7-.44.29-.2.6-.38.9-.55.15-.09.27-.16.42-.24.17-.11.33-.2.48-.29.11-.07.24-.13.35-.18.49-.29.99-.55,1.48-.81.66-.33,1.32-.64,2-.95.42-.18.84-.37,1.26-.53.26-.11.51-.22.77-.31.62-.24,1.25-.46,1.87-.66.48-.17.97-.31,1.45-.46.24-.07.48-.15.73-.2.24-.07.49-.13.73-.18.97-.26,1.96-.46,2.95-.62.64-.11,1.3-.09,2.42-.15v65.64Zm2.33-43.83v-.02h.05s-.04,0-.05.02Zm.48-.29v-.02h.05s-.04,0-.05.02Z"/>
  <g>
    <path class="cls-1" d="m369.72,105.76c0,14.9-11.58,27.09-26.21,28.1v50.74h-46.74c-4.05,0-4.07,6.29,0,6.29h46.74v9.51h-32.28v.07h-24.05v-66.61c-14.66-.97-26.27-13.18-26.27-28.1s12.59-28.15,28.15-28.15c4.03-10.56,14.3-18.05,26.27-18.05s22.22,7.5,26.28,18.05c15.52.04,28.1,12.63,28.1,28.15Z"/>
    <rect class="cls-1" x="311.23" y="200.4" width="32.28" height=".07"/>
  </g>
  <path class="cls-1" d="m217.46,202.27s-19.96,11.22-25.61,26.16l-1.44-37.19h22.58l4.46,11.03Z"/>
</svg>